<?xml version="1.0" encoding="utf-8"?>
<!-- Generator: Adobe Illustrator 21.0.2, SVG Export Plug-In . SVG Version: 6.00 Build 0)  -->
<svg version="1.1" id="Capa_1" xmlns="http://www.w3.org/2000/svg" xmlns:xlink="http://www.w3.org/1999/xlink" x="0px" y="0px"
	 viewBox="0 0 72 72" style="enable-background:new 0 0 72 72;" xml:space="preserve">
<path d="M60.8,11.8c-0.3-0.3-0.8-0.4-1.1-0.2L10,34.4c-0.4,0.2-0.6,0.6-0.6,1c0.1,0.4,0.4,0.8,0.8,0.9L32.6,40l2.5,21
	c0.1,0.4,0.4,0.8,0.8,0.9c0.1,0,0.1,0,0.2,0c0.4,0,0.7-0.2,0.9-0.6L61,13C61.2,12.6,61.1,12.1,60.8,11.8z M36.7,57.5L34.5,39
	c-0.1-0.4-0.4-0.8-0.8-0.9l-19.8-3.3L58,14.6L36.7,57.5z"/>
</svg>
